<?xml version="1.0" encoding="UTF-8"?>
<svg id="_01_-_APPARELLTM-_LOGO" data-name="01 - APPARELLTM- LOGO" xmlns="http://www.w3.org/2000/svg" viewBox="0 0 495.1 386.68">
  <defs>
    <style>
      .cls-1 {
        fill: #fff;
      }
    </style>
  </defs>
  <g>
    <path d="M288.84,272.11l19.66-5.17c.36-.09.71.18.71.54v9.77c0,.54.67.8,1.03.36l2.76-3.39c4.82-5.75,7.36-7.49,11.15-7.49,4.01,0,7.49,3.12,7.49,7.85,0,3.7-2.32,7.71-7.36,7.71-6.47,0-6.47-6.33-8.16-6.33-1.11,0-3.97,2.81-6.78,6.78-.09.09-.09.22-.09.36v36.21c0,.54-.45.98-.98.98h-13.06c-.49,0-.89-.4-.89-.89v-43.07c0-.22-.13-.4-.31-.54l-5.22-2.63c-.54-.18-.49-.89.04-1.03Z"/>
    <path d="M55.24,309.74l24.39-63.41c.09-.27.04-.54-.13-.71l-12.93-13.69c-.4-.45-.09-1.16.49-1.16h28.54c.27,0,.54.18.62.45,0,0,22.96,65.64,33.09,84.81,2.36,4.5,2.32,4.24-2.1,4.24h-29.43c-.67,0-.94-.89-.4-1.25l7.98-5.31c.27-.18.36-.54.27-.8l-7.89-20.38c-.09-.27-.36-.45-.62-.45h-29.34c-.27,0-.54.18-.62.45l-6.78,17.66c-.13.31,0,.62.27.8l11.77,8.07c.58.4.27,1.25-.4,1.25h-30.32c-.67,0-.94-.89-.36-1.25l13.69-8.92c.09-.13.18-.27.22-.4ZM70.09,287.23h24.57c.49,0,.8-.49.62-.94l-12.22-31.79c-.22-.58-1.07-.58-1.29,0l-12.35,31.84c-.18.4.18.89.67.89Z"/>
    <path d="M130.06,272.11l19.66-5.17c.36-.09.71.18.71.54v7.18c0,.58.71.8,1.03.36,3.7-5.26,7.58-8.25,13.33-8.25,12.08,0,19.57,10.92,19.57,27.65s-6.91,27.65-20.73,27.65c-6.82,0-10.61-3.08-12.26-4.9-.36-.4-.98-.13-.98.4v21.58c0,.45.22.89.62,1.16l5.13,3.17c.49.31.27,1.07-.31,1.07h-25.42c-.58,0-.8-.76-.31-1.07l4.68-3.12c.4-.27.67-.76.67-1.25v-62.78c0-.22-.13-.4-.31-.54l-5.22-2.63c-.45-.18-.4-.89.13-1.03ZM150.44,308.67c.22,6.11,4.95,9.32,8.65,9.32,6.33,0,9.77-8.07,9.77-22.43s-3.79-22.43-9.77-22.43c-2.9,0-4.64,1.47-7.09,4.77-.98,1.34-1.52,2.99-1.52,4.64v26.13h-.04Z"/>
    <path d="M184.55,272.11l19.66-5.17c.36-.09.71.18.71.54v7.18c0,.58.71.8,1.03.31,3.7-5.26,7.58-8.25,13.33-8.25,12.08,0,19.57,10.92,19.57,27.65s-6.91,27.65-20.73,27.65c-6.82,0-10.61-3.08-12.22-4.9-.36-.4-.98-.13-.98.4v22.03c0,.18.09.4.27.49l5.48,3.39c.49.31.27,1.07-.31,1.07h-25.42c-.58,0-.8-.76-.31-1.07l5.08-3.39c.18-.09.27-.27.27-.49v-63.23c0-.22-.13-.4-.31-.54l-5.22-2.63c-.54-.18-.45-.89.09-1.03ZM204.93,308.67c.22,6.11,4.95,9.32,8.65,9.32,6.33,0,9.77-8.07,9.77-22.43s-3.79-22.43-9.77-22.43c-2.23,0-3.75.85-5.48,2.72-2.05,2.27-3.17,5.22-3.17,8.25v24.57Z"/>
    <path d="M354.03,322.01c-16.01,0-25.68-12.08-25.68-27.65s11.99-27.65,25.68-27.65c17.79,0,21.98,10.03,22.12,21.85,0,.31-.27.58-.58.58h-32.24c-.31,0-.58.27-.58.58h0c0,16.68,9.32,22.43,17.39,22.43,7.58,0,12.93-5.08,15.16-8.2.36-.54,1.16-.13,1.03.49-1.56,7.22-7.05,17.57-22.29,17.57ZM343.06,285.09c-.04.36.22.62.58.62h10.08c5.75,0,9.23-1.74,9.23-6.33,0-5.75-2.32-9.77-7.49-9.77-5.57,0-11.1,5.31-12.4,15.47Z"/>
    <path d="M285.37,320.27c.36,0,.67-.31.67-.67v-36.16c0-10.92-6.47-16.68-19-16.68-11.5,0-23.36,6.33-23.36,13.47,0,3.92,2.41,7.13,6.78,7.13s6.69-3.21,6.69-6.78c0-7.05-1.03-10.34,5.31-10.34s8.65,2.99,8.65,13.24v2.36c0,.22-.13.45-.36.54l-16.23,6.64c-7.71,3.21-12.8,8.29-12.8,15.78,0,7.94,5.17,13.24,12.22,13.24,3.43,0,5.57-.8,8.25-2.68l8.03-5.84c.36-.22.8-.04.89.36v5.84c0,.36.13.58.62.58h13.64v-.04ZM271.05,309.52c0,.18-.09.36-.27.49-2.41,1.56-5.57,3.17-7.94,3.17-3.92,0-6.78-3.21-6.78-7.85,0-6.33,2.9-10.7,11.41-14.27l2.76-1.16c.4-.18.8.13.8.54v19.08Z"/>
    <path d="M375.62,243.35l19.66-5.17c.36-.09.71.18.71.54v76.65c0,.18.09.36.27.49l5.08,3.39c.49.31.27,1.07-.31,1.07h-24.97c-.58,0-.8-.76-.31-1.07l5.08-3.39c.18-.09.27-.27.27-.49v-67.82c0-.22-.13-.4-.31-.54l-5.22-2.63c-.54-.22-.49-.89.04-1.03Z"/>
    <path d="M404.69,243.35l19.66-5.17c.36-.09.71.18.71.54v76.65c0,.18.09.36.27.49l5.08,3.39c.49.31.27,1.07-.31,1.07h-24.97c-.58,0-.8-.76-.31-1.07l5.08-3.39c.18-.09.27-.27.27-.49v-67.82c0-.22-.13-.4-.31-.54l-5.22-2.63c-.54-.22-.45-.89.04-1.03Z"/>
    <path d="M442.86,299c6.6,0,11.24,5.08,11.24,11.24s-4.64,11.24-11.24,11.24-11.24-5.08-11.24-11.24,4.68-11.24,11.24-11.24Z"/>
  </g>
  <g>
    <g>
      <path d="M335.48,67.93h2.9l10.03,22.43,10.03-22.43h2.9v24.44h-1.96v-21.85l-9.81,21.85h-2.27l-9.81-21.85v21.85h-1.96l-.04-24.44Z"/>
      <path d="M313.37,67.93h19v1.61h-8.52v22.83h-1.96v-22.83h-8.52v-1.61Z"/>
    </g>
    <g>
      <path class="cls-1" d="M277.56,231.53c-1.74-2.14-3.66-4.41-5.48-6.73-8.03-10.26-15.61-20.78-20.29-33.04-1.25-3.26-2.05-6.78-2.27-10.21-.4-5.71,2.9-8.78,8.65-8.61,5.8.18,11.01,2.41,16.1,4.95,10.34,5.13,19.71,11.77,28.63,19.08,5.8,4.77,11.37,9.77,17.26,14.85,10.97-19,21.98-38.08,33.17-57.48-29.43-15.34-58.99-16.63-87.98-.54-30.28,16.81-44.95,43.56-46.51,77.72,19.8,0,39.28,0,58.72,0ZM218.08,163.89c.67-36.03-20.33-64.61-44.72-78.17-9.72,16.85-19.49,33.75-29.43,50.97.94-.13,1.61-.22,2.27-.36,13.91-2.36,27.82-4.06,41.96-2.72,5.22.49,10.43,1.34,14.94,4.33,3.48,2.32,4.46,5.71,2.72,9.5-1.78,3.97-4.9,6.87-8.25,9.45-10.66,8.34-22.83,13.91-35.36,18.68-6.64,2.54-13.51,4.64-20.24,6.91-.49.18-.98.36-1.65.58,11.06,19.17,22.03,38.21,33.26,57.65,28.27-18.06,43.92-43.3,44.5-76.83ZM229.81,116.89c30.1,19.22,61.44,19.04,93.28,2.63-9.9-17.17-19.66-34.07-29.56-51.23-1.65,4.24-3.12,8.16-4.73,12.08-4.06,9.85-8.61,19.53-15.07,28.09-2.54,3.39-5.57,6.55-8.92,9.14-5.08,3.97-9.99,2.59-12.84-3.26-2.5-5.13-3.17-10.7-3.48-16.32-.76-13.06.76-25.95,3.03-38.75.94-5.26,2.18-10.48,3.26-15.74.09-.49.18-1.03.27-1.38h-66.44c1.25,31.79,14.22,57.52,41.2,74.73Z"/>
      <path d="M218.79,231.53h58.77c-1.74-2.14-3.66-4.41-5.48-6.73-8.03-10.26-15.61-20.78-20.29-33.04-1.25-3.26-2.05-6.78-2.27-10.21-.4-5.71,2.9-8.78,8.65-8.61,5.8.18,11.01,2.41,16.1,4.95,10.34,5.13,19.71,11.77,28.63,19.08,5.8,4.77,11.37,9.77,17.26,14.85,10.97-19,21.98-38.08,33.17-57.48-29.43-15.34-58.99-16.63-87.98-.54-30.32,16.77-44.99,43.56-46.55,77.72Z"/>
      <path d="M140.27,183.11c.67-.22,1.16-.4,1.65-.58,6.78-2.27,13.6-4.37,20.24-6.91,12.53-4.82,24.7-10.34,35.36-18.68,3.34-2.63,6.47-5.48,8.25-9.45,1.74-3.79.76-7.18-2.72-9.5-4.5-3.03-9.72-3.83-14.94-4.33-14.13-1.34-28.05.36-41.96,2.72-.67.09-1.29.22-2.27.36,9.94-17.21,19.66-34.11,29.43-50.97,24.39,13.56,45.35,42.18,44.72,78.17-.62,33.53-16.23,58.81-44.55,76.87-11.15-19.49-22.16-38.53-33.22-57.7Z"/>
      <path d="M255.04,42.21c-.04.36-.13.85-.27,1.38-1.11,5.26-2.32,10.48-3.26,15.74-2.27,12.8-3.79,25.68-3.03,38.75.31,5.62.98,11.19,3.48,16.32,2.85,5.84,7.76,7.27,12.84,3.26,3.34-2.59,6.38-5.8,8.92-9.14,6.47-8.56,10.97-18.24,15.07-28.09,1.61-3.88,3.08-7.8,4.73-12.08,9.9,17.17,19.66,34.07,29.56,51.23-31.84,16.41-63.18,16.54-93.28-2.63-26.98-17.21-39.95-42.98-41.2-74.69,22.34-.04,44.37-.04,66.44-.04Z"/>
    </g>
  </g>
</svg>